<?xml version="1.0" encoding="UTF-8" standalone="no"?>
<svg
   class="logo-box"
   id="Layer_1"
   viewBox="0 0 40.053002 21.620138"
   version="1.1"
   sodipodi:docname="box.svg"
   width="40.053001"
   height="21.620138"
   inkscape:version="1.2.1 (9c6d41e410, 2022-07-14)"
   xmlns:inkscape="http://www.inkscape.org/namespaces/inkscape"
   xmlns:sodipodi="http://sodipodi.sourceforge.net/DTD/sodipodi-0.dtd"
   xmlns="http://www.w3.org/2000/svg"
   xmlns:svg="http://www.w3.org/2000/svg">
  <defs
     id="defs9" />
  <sodipodi:namedview
     id="namedview7"
     pagecolor="#ffffff"
     bordercolor="#666666"
     borderopacity="1.0"
     inkscape:showpageshadow="2"
     inkscape:pageopacity="0.0"
     inkscape:pagecheckerboard="0"
     inkscape:deskcolor="#d1d1d1"
     showgrid="false"
     inkscape:zoom="32.4"
     inkscape:cx="8.9660494"
     inkscape:cy="-0.52469136"
     inkscape:window-width="1916"
     inkscape:window-height="2121"
     inkscape:window-x="1920"
     inkscape:window-y="18"
     inkscape:window-maximized="1"
     inkscape:current-layer="Layer_1" />
  <style
     type="text/css"
     id="style2">/* &gt;&lt;!--*/
.box-logo-svg{fill:#0061d5;} 
/*--&gt;&lt;!*/
</style>
  <path
     class="box-logo-svg"
     d="m 31.512808,11.926051 c 0.300531,0.420742 0.240425,0.961697 -0.120212,1.262227 -0.420742,0.30053 -1.021803,0.240424 -1.322333,-0.120212 l -2.103712,-2.704772 -2.043606,2.644666 c -0.30053,0.420742 -0.901591,0.420742 -1.322333,0.120212 -0.420742,-0.30053 -0.480848,-0.841485 -0.180318,-1.262227 L 26.824536,8.7404304 24.420294,5.6149158 c -0.30053,-0.420742 -0.180318,-1.021803 0.180318,-1.322333 0.420742,-0.30053 1.021803,-0.180318 1.322333,0.180318 l 2.043606,2.7047726 2.103712,-2.5845606 c 0.30053,-0.420742 0.841485,-0.480848 1.322333,-0.180318 0.420743,0.30053 0.420743,0.901591 0.120212,1.322333 L 29.168672,8.8005364 Z M 20.573506,11.565415 c -1.562757,0 -2.824984,-1.202121 -2.824984,-2.7648786 0,-1.502651 1.262227,-2.7648776 2.824984,-2.7648776 1.562758,0 2.824985,1.2622266 2.824985,2.7648776 -0.06011,1.5627576 -1.322333,2.7648786 -2.824985,2.7648786 z m -8.294635,0 c -1.562757,0 -2.8249848,-1.202121 -2.8249848,-2.7648786 0,-1.502651 1.2622278,-2.7648776 2.8249848,-2.7648776 1.562757,0 2.824985,1.2622266 2.824985,2.7648776 0,1.5627576 -1.262228,2.7648786 -2.824985,2.7648786 z m 8.294635,-7.3329382 c -1.743075,0 -3.305832,0.961697 -4.087211,2.4042416 -0.781379,-1.4425446 -2.344136,-2.4042416 -4.147318,-2.4042416 -1.081909,0 -2.043606,0.360636 -2.8249848,0.901591 V 1.2872802 c 0,-0.48084836 -0.420743,-0.90159076 -0.901591,-0.90159076 -0.540955,0 -0.961697,0.4207424 -0.961697,0.90159076 v 7.5733622 c 0.06011,2.5244536 2.103712,4.5079536 4.6281668,4.5079536 1.803182,0 3.365939,-1.021803 4.147318,-2.464348 0.781378,1.442545 2.344136,2.464348 4.087211,2.464348 2.584561,0 4.688273,-2.043606 4.688273,-4.6281656 0.06011,-2.4643476 -2.043606,-4.5079536 -4.628167,-4.5079536 z"
     id="path4"
     style="stroke-width:0.601061" />
</svg>
