<?xml version="1.0" encoding="UTF-8" standalone="no"?>
<svg
   width="300.173"
   height="120"
   viewBox="0 0 300.173 120"
   version="1.1"
   id="svg549"
   sodipodi:docname="crowdstrike.svg"
   inkscape:version="1.2.1 (9c6d41e410, 2022-07-14)"
   xmlns:inkscape="http://www.inkscape.org/namespaces/inkscape"
   xmlns:sodipodi="http://sodipodi.sourceforge.net/DTD/sodipodi-0.dtd"
   xmlns="http://www.w3.org/2000/svg"
   xmlns:svg="http://www.w3.org/2000/svg">
  <defs
     id="defs553" />
  <sodipodi:namedview
     id="namedview551"
     pagecolor="#ffffff"
     bordercolor="#666666"
     borderopacity="1.0"
     inkscape:showpageshadow="2"
     inkscape:pageopacity="0.0"
     inkscape:pagecheckerboard="0"
     inkscape:deskcolor="#d1d1d1"
     showgrid="false"
     inkscape:zoom="7.5375723"
     inkscape:cx="53.133819"
     inkscape:cy="15.057899"
     inkscape:window-width="3840"
     inkscape:window-height="2160"
     inkscape:window-x="0"
     inkscape:window-y="0"
     inkscape:window-maximized="1"
     inkscape:current-layer="svg549" />
  <g
     id="Homepage"
     stroke="none"
     stroke-width="1"
     fill="none"
     fill-rule="evenodd"
     style="fill:#ff0000"
     transform="matrix(1.5516057,0,0,1.5516057,1.1101612,41.986245)">
    <g
       id="Home"
       transform="translate(-72,-7240)"
       fill="#FEFEFE"
       style="fill:#ff0000">
      <g
         id="Group-24"
         transform="translate(72,7240)"
         style="fill:#ff0000">
        <g
           id="Group-7"
           transform="translate(13,3.5267)"
           style="fill:#ff0000">
          <path
             d="m 14.5154,12.2448 v -0.307 l -2.6,-2.238 h -0.303 c -0.715,0.79 -1.819,1.382 -3.054,1.382 -1.928,0 -3.445,-1.47 -3.445,-3.488 0,-2.018 1.517,-3.488 3.445,-3.488 1.235,0 2.339,0.592 3.054,1.382 h 0.303 l 2.6,-2.238 v -0.307 c -1.365,-1.667 -3.509,-2.742 -5.936,-2.742 -4.462,0 -7.841,3.159 -7.841,7.393 0,0.164 0.037,0.315 0.048,0.476 1.826,1.242 3.438,2.236 4.826,3.146 2.001,1.266 3.616,2.431 4.946,3.514 1.658,-0.419 3.002,-1.328 3.957,-2.485 m -12.148,-0.079 c 1.042,1.28 2.513,2.198 4.248,2.59 -1.172,-0.659 -2.307,-1.306 -3.364,-2.022 -0.31,-0.192 -0.586,-0.378 -0.884,-0.568"
             id="Fill-1"
             style="fill:#ff0000" />
          <path
             d="m 29.571,14.0437 -0.65,-2.808 -0.238,-0.154 c -0.13,0.066 -0.238,0.154 -0.563,0.154 -0.499,0 -0.802,-0.527 -1.062,-0.943 -0.433,-0.659 -0.78,-1.01 -1.083,-1.163 1.581,-0.702 2.643,-2.018 2.643,-3.905 0,-2.918 -1.993,-4.761 -5.697,-4.761 h -6.456 v 14.26 h 4.289 v -5.002 h 0.39 c 0.953,0 2.167,2.062 2.73,2.984 1.17,1.865 2.101,2.281 3.769,2.281 0.78,0 1.43,-0.285 1.82,-0.636 z m -5.329,-8.578 c 0,0.944 -0.693,1.404 -1.495,1.404 h -1.993 v -2.896 h 1.993 c 0.802,0 1.495,0.527 1.495,1.492 z"
             id="Fill-3"
             style="fill:#ff0000" />
          <path
             d="m 46.1426,7.5939 c 0,-4.234 -3.379,-7.393 -7.863,-7.393 -4.485,0 -7.864,3.159 -7.864,7.393 0,4.234 3.379,7.393 7.864,7.393 4.484,0 7.863,-3.181 7.863,-7.393 m -4.376,0 c 0,2.04 -1.56,3.488 -3.487,3.488 -1.928,0 -3.488,-1.448 -3.488,-3.488 0,-2.04 1.56,-3.488 3.488,-3.488 1.927,0 3.487,1.448 3.487,3.488"
             id="Fill-5"
             style="fill:#ff0000" />
        </g>
        <polygon
           id="Fill-8"
           points="59.4023,3.9906 59.2073,4.3196 64.4503,18.2506 67.0493,18.2506 69.9953,10.4846 72.9633,18.2506 75.5633,18.2506 80.8053,4.3196 80.6103,3.9906 76.5163,3.9906 73.9813,11.8886 71.2953,3.9906 68.6963,3.9906 66.0313,11.8446 63.4973,3.9906 "
           style="fill:#ff0000" />
        <path
           d="m 96.5105,11.0987 c 0,-4.256 -2.838,-7.108 -7.452,-7.108 h -6.564 v 14.26 h 6.564 c 4.614,0 7.452,-2.852 7.452,-7.152 m -4.376,0.022 c 0,2.325 -1.365,3.62 -3.249,3.62 h -2.102 v -7.24 h 2.102 c 1.884,0 3.249,1.295 3.249,3.62"
           id="Fill-9"
           style="fill:#ff0000" />
        <polygon
           id="Fill-11"
           points="114.9426,18.2508 119.2316,18.2508 119.2316,7.5008 123.5206,7.5008 123.5206,3.9908 110.6536,3.9908 110.6536,7.5008 114.9426,7.5008 "
           style="fill:#ff0000" />
        <path
           d="m 137.233,8.7513 c 0,-2.918 -1.993,-4.761 -5.697,-4.761 h -6.456 v 14.26 h 4.29 v -5.002 h 1.018 l 2.664,5.002 h 4.268 l 0.195,-0.329 -2.86,-5.287 c 1.538,-0.724 2.578,-2.018 2.578,-3.883 m -4.376,0.241 c 0,0.944 -0.693,1.404 -1.495,1.404 h -1.992 v -2.896 h 1.992 c 0.802,0 1.495,0.527 1.495,1.492"
           id="Fill-12"
           style="fill:#ff0000" />
        <polygon
           id="Fill-14"
           points="144.121,3.9907 139.832,3.9907 139.832,18.2507 144.121,18.2507 "
           style="fill:#ff0000" />
        <polygon
           id="Fill-15"
           points="151.1177,18.2507 151.1177,13.8627 151.8977,12.9417 155.5377,18.2507 160.0217,18.2507 160.2167,17.9217 154.9957,10.3747 159.8477,4.3197 159.6527,3.9907 155.0827,3.9907 151.1177,9.0587 151.1177,3.9907 146.8287,3.9907 146.8287,18.2507 "
           style="fill:#ff0000" />
        <polygon
           id="Fill-16"
           points="172.1092,7.5013 172.1092,3.9903 161.3862,3.9903 161.3862,18.2513 172.1732,18.2513 172.1732,14.7413 165.6742,14.7413 165.6742,12.7663 170.5702,12.7663 170.5702,9.4753 165.6742,9.4753 165.6742,7.5013 "
           style="fill:#ff0000" />
        <g
           id="Group-23"
           transform="translate(0,0.5267)"
           style="fill:#ff0000">
          <path
             d="m 103.7658,17.8933 c 3.142,0 5.869,-1.535 5.869,-4.495 0,-3.226 -2.749,-4.06 -5.175,-4.762 -0.954,-0.285 -1.93,-0.615 -1.93,-1.317 0,-0.505 0.542,-0.812 1.366,-0.812 1.409,0 2.6,0.878 3.206,1.449 h 0.303 l 2.014,-2.413 v -0.307 c -1.061,-1.206 -3.226,-2.127 -5.61,-2.127 -3.336,0 -5.652,1.798 -5.652,4.408 0,2.809 2.554,4.038 4.72,4.652 1.409,0.395 2.364,0.461 2.364,1.229 0,0.549 -0.673,0.878 -1.714,0.878 -1.322,0 -2.924,-0.856 -3.703,-1.624 h -0.303 l -1.992,2.501 v 0.307 c 1.277,1.425 3.572,2.433 6.237,2.433"
             id="Fill-17"
             style="fill:#ff0000" />
          <path
             d="m 29.8197,30.9998 c -1.039,-2.378 -3.126,-5.429 -11.302,-9.786 -3.77,-2.096 -10.211,-5.323 -16.004,-11.456 0.525,2.214 3.215,7.079 14.785,13.154 3.204,1.753 8.622,3.397 12.521,8.088"
             id="Fill-19"
             style="fill:#ff0000" />
          <path
             d="M 29.298,26.9271 C 28.312,24.1171 26.532,20.5191 18.091,15.1751 13.98,12.4811 7.945,9.0981 0,0.4731 c 0.568,2.325 3.078,8.371 15.73,16.22 4.156,2.816 9.52,4.553 13.568,10.234"
             id="Fill-21"
             style="fill:#ff0000" />
        </g>
      </g>
    </g>
  </g>
</svg>
