<?xml version="1.0" encoding="UTF-8" standalone="no"?>
<svg
   viewBox="0 0 229.36 31.88"
   version="1.1"
   id="svg1101"
   sodipodi:docname="cylance-logo.svg"
   inkscape:version="1.2.1 (9c6d41e410, 2022-07-14)"
   xmlns:inkscape="http://www.inkscape.org/namespaces/inkscape"
   xmlns:sodipodi="http://sodipodi.sourceforge.net/DTD/sodipodi-0.dtd"
   xmlns="http://www.w3.org/2000/svg"
   xmlns:svg="http://www.w3.org/2000/svg">
  <sodipodi:namedview
     id="namedview1103"
     pagecolor="#ffffff"
     bordercolor="#666666"
     borderopacity="1.0"
     inkscape:showpageshadow="2"
     inkscape:pageopacity="0.0"
     inkscape:pagecheckerboard="0"
     inkscape:deskcolor="#d1d1d1"
     showgrid="false"
     inkscape:zoom="5.6853854"
     inkscape:cx="99.377608"
     inkscape:cy="16.005951"
     inkscape:window-width="1916"
     inkscape:window-height="2121"
     inkscape:window-x="1920"
     inkscape:window-y="18"
     inkscape:window-maximized="1"
     inkscape:current-layer="Page-1-2" />
  <defs
     id="defs1075">
    <style
       id="style1070">.cls-1{fill:#fff;}.cls-2{fill:#69cf3b;}.cls-3{mask:url(#mask);}</style>
    <mask
       id="mask"
       x="227.46"
       y="8.05"
       width="1.91"
       height="1.83"
       maskUnits="userSpaceOnUse">
      <g
         id="mask-2">
        <polygon
           id="path-1"
           class="cls-1"
           points="229.36 9.87 229.36 8.04 227.46 8.04 227.46 9.87 229.36 9.87" />
      </g>
    </mask>
  </defs>
  <title
     id="title1077">cylance-logo</title>
  <g
     id="Layer_2"
     data-name="Layer 2"
     style="fill:#000000" />
  <g
     id="Page-1"
     style="fill:#000000">
    <g
       id="cylance-logo"
       style="fill:#000000">
      <g
         id="Page-1-2"
         data-name="Page-1"
         style="fill:#000000">
        <path
           id="Fill-1"
           class="cls-1"
           d="m 171.84,8.14 h -0.6 a 0.52,0.52 0 0 0 -0.49,0.49 v 12.05 a 1.43,1.43 0 0 1 -1.58,1.48 1.46,1.46 0 0 1 -1.08,-0.51 L 156.76,9.2 a 3,3 0 0 0 -2.28,-1 3.32,3.32 0 0 0 -3.18,3.43 v 11.62 a 0.52,0.52 0 0 0 0.51,0.48 h 0.6 a 0.52,0.52 0 0 0 0.49,-0.49 V 11.59 a 1.74,1.74 0 0 1 1.58,-1.86 1.46,1.46 0 0 1 1.08,0.51 l 11.34,12.45 a 3,3 0 0 0 2.28,1 3,3 0 0 0 3.18,-3 V 8.62 a 0.53,0.53 0 0 0 -0.51,-0.48"
           style="fill:#000000" />
        <path
           id="Fill-3"
           class="cls-1"
           d="m 61.33,22.15 h -14.7 a 1.74,1.74 0 0 1 -1.58,-1.86 v -8.78 a 2,2 0 0 1 0.49,-1.27 1.45,1.45 0 0 1 1.08,-0.51 h 14.71 a 0.52,0.52 0 0 0 0.52,-0.5 V 8.65 A 0.53,0.53 0 0 0 61.33,8.17 H 46.61 a 3,3 0 0 0 -2.28,1 3.57,3.57 0 0 0 -0.88,2.23 v 8.84 a 3.32,3.32 0 0 0 3.18,3.43 h 14.7 a 0.52,0.52 0 0 0 0.52,-0.5 V 22.58 A 0.52,0.52 0 0 0 61.33,22.1"
           style="fill:#000000" />
        <path
           id="Fill-5"
           class="cls-1"
           d="M 114.34,22.15 H 99.64 A 1.74,1.74 0 0 1 98.06,20.29 V 8.67 A 0.52,0.52 0 0 0 97.55,8.16 H 97 a 0.52,0.52 0 0 0 -0.49,0.51 v 11.61 a 3.32,3.32 0 0 0 3.18,3.43 h 14.71 a 0.52,0.52 0 0 0 0.52,-0.5 v -0.59 a 0.53,0.53 0 0 0 -0.52,-0.48"
           style="fill:#000000" />
        <path
           id="Fill-7"
           class="cls-1"
           d="M 198.11,22.15 H 183.4 a 1.74,1.74 0 0 1 -1.58,-1.86 v -8.78 a 2,2 0 0 1 0.49,-1.27 1.45,1.45 0 0 1 1.08,-0.51 h 14.72 a 0.52,0.52 0 0 0 0.52,-0.5 V 8.67 a 0.52,0.52 0 0 0 -0.52,-0.48 h -14.72 a 3,3 0 0 0 -2.28,1 3.57,3.57 0 0 0 -0.88,2.23 v 8.84 a 3.32,3.32 0 0 0 3.18,3.43 h 14.71 a 0.52,0.52 0 0 0 0.52,-0.5 V 22.6 a 0.52,0.52 0 0 0 -0.52,-0.48"
           style="fill:#000000" />
        <path
           id="Fill-9"
           class="cls-1"
           d="m 218.91,15.16 h -8 a 0.52,0.52 0 0 0 -0.49,0.5 v 0.59 a 0.53,0.53 0 0 0 0.5,0.48 h 8 a 0.52,0.52 0 0 0 0.5,-0.5 v -0.59 a 0.52,0.52 0 0 0 -0.51,-0.48"
           style="fill:#000000" />
        <path
           id="Fill-11"
           class="cls-1"
           d="m 224.9,22.63 a 0.52,0.52 0 0 0 -0.52,-0.48 h -14.7 a 1.74,1.74 0 0 1 -1.58,-1.86 v -8.78 a 2,2 0 0 1 0.49,-1.27 1.45,1.45 0 0 1 1.08,-0.51 h 14.73 a 0.52,0.52 0 0 0 0.52,-0.5 V 8.65 A 0.52,0.52 0 0 0 224.4,8.17 h -14.74 a 3,3 0 0 0 -2.28,1 3.57,3.57 0 0 0 -0.88,2.23 v 8.84 a 3.32,3.32 0 0 0 3.18,3.43 h 14.71 a 0.52,0.52 0 0 0 0.52,-0.5 z"
           style="fill:#000000" />
        <path
           id="Fill-13"
           class="cls-1"
           d="M 79.66,15.47 71,8.27 a 0.61,0.61 0 0 0 -0.76,0.08 l -0.4,0.46 a 0.48,0.48 0 0 0 0.1,0.7 l 8.34,7 v 6.75 a 0.54,0.54 0 0 0 0.54,0.51 h 0.66 a 0.54,0.54 0 0 0 0.53,-0.51 v -7.18 a 0.76,0.76 0 0 0 -0.33,-0.62"
           style="fill:#000000" />
        <path
           id="Fill-15"
           class="cls-2"
           d="m 23.53,2.48 v 0 L 17.78,1.09 v 10.13 a 5,5 0 0 1 -1,2.74 l -2,2.4 -0.71,-0.87 1.72,-2.11 a 4.14,4.14 0 0 0 0.82,-2.17 V 0.81 L 13.54,0.06 v 0 A 2.93,2.93 0 0 0 12.93,0 v 0 a 2.94,2.94 0 0 0 -0.62,0.07 v 0 l -3,0.73 v 10 a 3.86,3.86 0 0 0 0.75,2 l 7.51,9.09 a 5.2,5.2 0 0 1 1.1,2.92 v 3.91 l 5.88,-3.87 v 0 a 2.8,2.8 0 0 0 1.31,-2.36 V 5.24 A 2.83,2.83 0 0 0 23.55,2.48"
           style="fill:#69cf3b;fill-opacity:1" />
        <path
           id="Fill-17"
           class="cls-2"
           d="M 15.8,22.77 8.29,13.68 A 5.2,5.2 0 0 1 7.19,10.76 V 1.3 L 2.31,2.48 v 0 A 2.83,2.83 0 0 0 0,5.24 v 17.2 a 2.8,2.8 0 0 0 1.31,2.36 v 0 l 5.93,3.91 v -4 a 5,5 0 0 1 1,-2.74 l 2.64,-3.2 0.71,0.86 -2.35,2.97 c -0.56,0.68 -0.82,1.93 -0.82,3.93 v 3 l 2.84,1.87 v 0 a 2.89,2.89 0 0 0 1.65,0.52 v 0 a 2.89,2.89 0 0 0 1.65,-0.52 v 0 l 2,-1.3 v -5.3 a 3.86,3.86 0 0 0 -0.75,-2"
           style="fill:#69cf3b;fill-opacity:1" />
        <path
           id="Fill-19"
           class="cls-1"
           d="M 88.55,7.93 A 0.54,0.54 0 0 0 87.84,7.85 l -6.9,5.7 a 0.52,0.52 0 0 0 -0.08,0.7 l 0.45,0.48 a 0.54,0.54 0 0 0 0.4,0.18 0.55,0.55 0 0 0 0.31,-0.1 L 88.83,9.1 a 0.52,0.52 0 0 0 0.08,-0.71 z"
           style="fill:#000000" />
        <path
           id="Fill-21"
           class="cls-1"
           d="m 124.23,23.2 a 0.53,0.53 0 1 0 -0.53,0.52 0.53,0.53 0 0 0 0.53,-0.52"
           style="fill:#000000" />
        <path
           id="Fill-23"
           class="cls-1"
           d="m 143.5,23.2 a 0.5,0.5 0 0 0 -0.1,-0.28 v 0 l -7.26,-13 A 3.5,3.5 0 0 0 130,10 l -7.26,13 v 0 a 0.5,0.5 0 0 0 -0.1,0.28 0.52,0.52 0 0 0 0.46,0.51 h 0.55 a 0.52,0.52 0 0 0 0.45,-0.24 c 0,0 6.8,-12 7.29,-12.77 a 1.88,1.88 0 0 1 3.31,0 c 0.49,0.81 7.29,12.77 7.29,12.77 v 0 a 0.52,0.52 0 0 0 0.13,0.12 h 0.06 a 0.53,0.53 0 0 0 0.23,0.06 H 143 a 0.52,0.52 0 0 0 0.45,-0.51"
           style="fill:#000000" />
        <polygon
           id="Fill-25"
           class="cls-1"
           points="227.22,8.37 226.74,8.37 226.74,9.87 226.37,9.87 226.37,8.37 225.88,8.37 225.88,8.04 227.22,8.04 "
           style="fill:#000000" />
        <g
           id="Group-29"
           style="fill:#000000">
          <g
             class="cls-3"
             mask="url(#mask)"
             id="g1093"
             style="fill:#000000">
            <polygon
               id="Fill-27"
               class="cls-1"
               points="228.41,9.38 228.73,8.04 229.36,8.04 229.36,9.87 228.99,9.87 228.99,8.46 228.95,8.46 228.59,9.79 228.22,9.79 227.87,8.46 227.83,8.46 227.83,9.87 227.46,9.87 227.46,8.04 228.09,8.04 "
               style="fill:#000000" />
          </g>
        </g>
      </g>
    </g>
  </g>
</svg>
