<?xml version="1.0" encoding="UTF-8" standalone="no"?>
<svg xmlns:rdf="http://www.w3.org/1999/02/22-rdf-syntax-ns#" xmlns="http://www.w3.org/2000/svg" viewBox="0 0 60.060415 20.6375" height="78" width="227" version="1.1" xmlns:cc="http://creativecommons.org/ns#" xmlns:dc="http://purl.org/dc/elements/1.1/">
 <metadata>
  <rdf:RDF>
   <cc:Work rdf:about="">
    <dc:format>image/svg+xml</dc:format>
    <dc:type rdf:resource="http://purl.org/dc/dcmitype/StillImage"/>
    <dc:title/>
   </cc:Work>
  </rdf:RDF>
 </metadata>
 <g transform="translate(0 -15.815)">
  <path d="m9.1131 34.569c-4.3435-0.564-7.5639-4.293-7.4548-8.633 0.031574-1.256 0.30636-2.3718 0.86725-3.5216 1.8649-3.8229 6.2187-5.6707 10.261-4.3552 2.13 0.69314 3.9127 2.2414 4.9431 4.2931 0.40932 0.815 0.71282 1.7928 0.82917 2.6714 0.07181 0.54226 0.07116 1.6325-0.0012 2.2043-0.32734 2.5821-1.8719 4.9058-4.1599 6.2586-1.5261 0.90226-3.5212 1.3108-5.2848 1.0821zm-2.226-6.8842c0.0005055-1.9519 0.00875-2.0436 0.22481-2.5048 0.14436-0.30825 0.59732-0.75282 0.91826-0.90124 0.21146-0.09779 0.32462-0.12013 0.61536-0.1214 0.30315-0.0013 0.39464 0.01729 0.61386 0.12493 0.55596 0.273 0.94426 0.79399 2.9506 3.9589l0.75496 1.1909 0.94657 0.000253 0.94657 0.000252-0.28215-0.45644c-0.15518-0.25106-0.5288-0.85723-0.83027-1.3471-0.30146-0.48983-0.7394-1.2012-0.9732-1.5808-1.3374-2.1716-1.8586-2.845-2.4348-3.1457-0.52656-0.27478-1.2381-0.35712-1.848-0.21385-0.54473 0.12794-1.2458 0.53694-1.5218 0.88781-0.048291 0.0614-0.10639 0.11162-0.1291 0.11162-0.022814 0-0.041302-0.21423-0.041292-0.4787l0.0000027-0.4787-0.92401 0.0093-0.92401 0.0093-0.011402 3.3862-0.011403 3.3862h1.9599l0.0005071-1.8369zm4.0834 1.0201 0.49562-0.72769-0.53659-0.85482c-0.29512-0.47015-0.54095-0.84906-0.54629-0.84202-0.0053 0.0071-0.4363 0.62399-0.95771 1.371-0.5214 0.747-1.0171 1.4534-1.1016 1.5697l-0.1536 0.21152h2.3046zm3.1825-4.4378c0.59752-0.79598 1.1018-1.4723 1.1207-1.5029 0.02712-0.04396-0.20011-0.05566-1.0809-0.05566h-1.1152l-0.49317 0.73779c-0.27124 0.40578-0.48695 0.76307-0.47935 0.79397 0.01313 0.05338 0.94203 1.4926 0.95526 1.48 0.0034-0.0033 0.49518-0.65724 1.0927-1.4532z" stroke-width=".044531" fill="#0786c7"/>
  <path d="m52.797 31.657v-0.59526h1.6484c1.8409 0 1.8688-0.0046 2.1054-0.3528 0.07189-0.10579 0.12833-0.26325 0.12833-0.358v-0.16915h-1.1457c-1.3944 0-1.64-0.05258-2.2028-0.47158-0.40856-0.30418-0.7906-0.88311-1.0039-1.5212-0.11179-0.33447-0.09582-1.4822 0.02592-1.8634 0.22356-0.70005 0.73859-1.3422 1.3173-1.6425 0.43255-0.22444 0.75168-0.25179 2.7503-0.2357l1.8375 0.01479 0.01342 2.6558c0.01551 3.07-0.01311 3.6367-0.20442 4.0486-0.15328 0.33004-0.59015 0.78214-0.86204 0.89207-0.46032 0.18612-0.55648 0.19362-2.4834 0.19362h-1.9245zm3.8699-4.3351-0.01368-1.6176-0.62114-0.01598c-0.8647-0.02224-1.1152 0.01587-1.4046 0.21377-0.38606 0.26397-0.63998 0.85433-0.63998 1.4879 0 0.32366 0.13656 0.87653 0.2165 0.87653 0.02327 0 0.04231 0.03038 0.04231 0.0675 0 0.08108 0.28635 0.36014 0.46283 0.45105 0.24458 0.12599 0.39841 0.14551 1.1813 0.14992l0.79011 0.0046-0.01368-1.6176zm-9.3258 2.9044c-0.95265-0.12224-1.6946-0.59181-2.1047-1.332-0.3931-0.70952-0.45593-2.0499-0.12954-2.7635 0.39937-0.87312 1.2846-1.4821 2.3845-1.6405 0.84399-0.12152 1.7241-0.03244 2.3371 0.23654 0.08971 0.03937 0.17756 0.07157 0.19522 0.07157 0.073 0 0.48759 0.30011 0.73356 0.53101 0.2268 0.21291 0.43274 0.53894 0.59639 0.9442 0.07321 0.18131 0.14926 0.70723 0.1492 1.0318 0 0.57653-0.23692 1.4571-0.45085 1.6764-0.03669 0.03761-0.06671 0.08624-0.06671 0.10804 0 0.05823-0.36172 0.42411-0.57019 0.57676-0.19952 0.14608-0.64848 0.36516-0.93566 0.45657-0.46842 0.1491-1.4213 0.19498-2.1383 0.10298zm1.5655-1.1667c0.23568-0.09661 0.55676-0.39846 0.67844-0.63778 0.2168-0.42641 0.29627-1.1215 0.18124-1.5854-0.32446-1.3086-1.8976-1.6968-2.8067-0.69271-0.35434 0.39138-0.50426 1.0602-0.36833 1.6433 0.17063 0.73186 0.65827 1.2608 1.2595 1.3661 0.28308 0.04959 0.82357 0.0018 1.0559-0.09349zm-28.655 1.0878c-0.05095-0.02055-0.0647-0.84493-0.0647-3.878v-3.8519h1.2308c1.1691 0 1.2352 0.0052 1.3199 0.10411 0.04902 0.05726 0.08915 0.11705 0.08915 0.13286s0.05247 0.10289 0.1166 0.19351 0.14478 0.21136 0.17922 0.2683c0.22391 0.37012 2.3175 3.68 2.3409 3.701 0.03863 0.0345 0.15048 0.21379 0.19375 0.31057 0.0191 0.0427 0.04807 0.08929 0.06438 0.10352 0.01632 0.01423 0.05791 0.07247 0.09243 0.1294 0.27922 0.46055 0.51112 0.80231 0.54441 0.80231 0.02191 0 0.03985-1.2928 0.03985-2.8728v-2.8728h1.8641l-0.01326 3.8692-0.01326 3.8692-1.2014 0.01388-1.2014 0.01388-0.48469-0.73855c-0.2666-0.4062-0.61018-0.93654-0.76353-1.1785-0.15335-0.24199-0.29136-0.45162-0.3067-0.46586-0.01533-0.01422-0.05117-0.06457-0.07965-0.11187-0.17204-0.28581-0.67365-1.057-0.70163-1.0786-0.01836-0.01423-0.04271-0.04918-0.0541-0.07764-0.01141-0.02846-0.26731-0.42444-0.5687-0.87994s-0.59175-0.90388-0.64524-0.99641-0.11553-0.16823-0.13786-0.16823-0.0406 1.267-0.0406 2.8155c0 2.5196-0.0085 2.8188-0.08188 2.8469-0.09736 0.03737-1.6235 0.03482-1.7168-0.0028zm8.7348-0.0055c0-0.02187 0.08734-0.14571 0.19411-0.2752 0.10676-0.12949 0.25234-0.31166 0.32351-0.40484 0.11294-0.14786 0.33403-0.42814 0.53462-0.67776 0.03431-0.0427 0.13174-0.17081 0.21651-0.28469 0.08476-0.11388 0.1665-0.21869 0.18163-0.23293 0.01514-0.01423 0.10843-0.13062 0.20734-0.25864 0.0989-0.12802 0.20823-0.26777 0.24294-0.31057s0.28511-0.36097 0.55644-0.70706c0.45863-0.58498 0.55672-0.75935 0.45162-0.80283-0.02294-0.0095-0.17814-0.2036-0.3449-0.43135-0.16675-0.22775-0.31703-0.42574-0.33394-0.43997-0.03393-0.02855-0.96051-1.2501-1.389-1.8311-0.14958-0.20284-0.30143-0.40373-0.33746-0.44644-0.03603-0.0427-0.15431-0.19411-0.26285-0.33645l-0.19734-0.25881 1.1301-0.01442c1.2315-0.01572 1.1423-0.0342 1.3494 0.27971 0.03521 0.05338 0.23794 0.34724 0.4505 0.65301 0.21257 0.30578 0.5422 0.7891 0.73252 1.0741 0.19032 0.28496 0.36348 0.5181 0.3848 0.5181s0.0938-0.07216 0.16106-0.16037c0.06726-0.0882 0.17031-0.22213 0.229-0.29763 0.05869-0.07549 0.32611-0.44007 0.59427-0.81017s0.50042-0.68455 0.51614-0.69878c0.01571-0.01423 0.11715-0.14817 0.22539-0.29763l0.19681-0.27175h1.1148c1.0543 0 1.111 0.0049 1.0438 0.09058-0.03907 0.04982-0.08418 0.10223-0.10025 0.11646-0.01606 0.01423-0.16747 0.21032-0.33645 0.43574s-0.40041 0.53118-0.51429 0.67945c-0.11388 0.14828-0.31024 0.4064-0.43636 0.57362-0.12612 0.16721-0.24264 0.31567-0.25894 0.3299-0.0163 0.01424-0.13433 0.16564-0.2623 0.33645s-0.2445 0.32222-0.25897 0.33645c-0.01448 0.01423-0.12988 0.16564-0.25648 0.33645-0.12659 0.17081-0.26055 0.3415-0.29767 0.37931-0.03713 0.03781-0.09162 0.11379-0.12108 0.16885-0.05502 0.10279 0.01461 0.22631 0.36318 0.6442 0.07209 0.08642 0.19343 0.23782 0.26967 0.33645s0.38611 0.49378 0.68861 0.87811 0.61281 0.77892 0.68958 0.87685 0.20946 0.26453 0.29486 0.37021c0.43918 0.54344 0.64702 0.81427 0.64702 0.84314 0 0.01761-0.49497 0.03176-1.0999 0.03142l-1.0999-0.000588-0.19591-0.27114c-0.108-0.147-0.306-0.411-0.44-0.584-0.13423-0.17332-0.38179-0.49942-0.55014-0.72466-0.16834-0.22524-0.32051-0.42118-0.33816-0.43541-0.01765-0.01422-0.11979-0.147-0.22699-0.29504s-0.2229-0.25708-0.2571-0.24231-0.46441 0.59592-0.95602 1.2915l-0.89382 1.2646h-1.1119c-0.61157 0-1.1119-0.0179-1.1119-0.03977zm11.905-0.0367c-0.77869-0.0823-1.0801-0.15671-1.5009-0.37045-0.4601-0.23374-0.83254-0.62907-1.0769-1.1431l-0.19147-0.40275-0.01498-2.8857-0.015-2.8857h1.9118l0.01668 2.6528c0.01624 2.5823 0.01962 2.6592 0.12731 2.8921 0.1595 0.34497 0.45044 0.64249 0.78685 0.80466l0.29304 0.14127 1.6191 0.02147 1.6192 0.02147-0.01453 0.60233-0.01452 0.60232-1.4752 0.0061c-0.84476 0.0035-1.7296-0.02073-2.0705-0.05677z" stroke-width=".051762" fill="#092f57"/>
 </g>
</svg>