<svg width="220" height="52" viewBox="0 0 220 52" fill="none" xmlns="http://www.w3.org/2000/svg">
<mask id="mask0_188:228" style="mask-type:alpha" maskUnits="userSpaceOnUse" x="0" y="0" width="220" height="51">
<path fill-rule="evenodd" clip-rule="evenodd" d="M0 0.5H219.792V50.1609H0V0.5Z" fill="white"/>
</mask>
<g mask="url(#mask0_188:228)">
<path fill-rule="evenodd" clip-rule="evenodd" d="M135.96 16.0395L135.954 16.0356C135.954 16.0356 135.95 16.0331 135.946 16.0331C135.797 15.9684 135.633 15.9349 135.476 15.9349C135.221 15.9366 134.977 16.012 134.764 16.1441C134.546 16.2805 134.363 16.4794 134.257 16.7282V16.7343L129.283 30.225L125.45 21.1825L125.444 21.1786C125.336 20.9258 125.143 20.7305 124.924 20.5945C124.703 20.4581 124.448 20.3831 124.179 20.3831C123.918 20.3831 123.675 20.4641 123.46 20.5962C123.249 20.7323 123.058 20.9258 122.951 21.1786L122.948 21.1825L119.107 30.2307L114.106 16.7461H114.103C114.015 16.4854 113.838 16.2823 113.627 16.148C113.412 16.012 113.161 15.9366 112.902 15.9349C112.737 15.9349 112.569 15.9684 112.412 16.0331H112.404L112.398 16.0395C111.932 16.2548 111.647 16.7165 111.646 17.2196C111.646 17.3777 111.677 17.5352 111.739 17.6912H111.737L117.888 34.0594V34.0652C117.936 34.1873 118.003 34.3079 118.103 34.4265C118.175 34.5111 118.281 34.5825 118.39 34.6418C118.41 34.6611 118.442 34.6886 118.489 34.7182C118.541 34.75 118.607 34.7721 118.675 34.7836C118.784 34.8196 118.93 34.8721 119.125 34.8721C119.374 34.8721 119.605 34.7836 119.812 34.6514C120.005 34.5233 120.178 34.3315 120.274 34.083L120.289 34.0712L124.179 24.8566L128.074 34.0337H128.078C128.168 34.2783 128.325 34.4701 128.508 34.6061C128.702 34.75 128.918 34.8389 129.148 34.8721H129.311C129.467 34.8721 129.617 34.8428 129.745 34.7935C129.878 34.7425 129.986 34.675 130.075 34.6082C130.284 34.4501 130.446 34.233 130.546 33.992V33.9866L136.657 17.6912C136.717 17.5352 136.748 17.3795 136.748 17.2221C136.747 16.7225 136.45 16.2469 135.96 16.0395ZM107.842 25.384C107.842 23.462 107.097 21.721 105.912 20.4641C104.721 19.2048 103.108 18.435 101.356 18.435C99.6032 18.435 97.9866 19.2048 96.7976 20.4641C95.6104 21.721 94.8657 23.462 94.8657 25.384C94.8657 27.3043 95.6104 29.0289 96.7976 30.2778C97.9866 31.5315 99.6032 32.2891 101.356 32.2891C103.108 32.2891 104.727 31.5315 105.912 30.2778C107.097 29.0289 107.842 27.3043 107.842 25.384ZM107.808 18.7113C109.453 20.4402 110.452 22.8125 110.456 25.384C110.452 27.9555 109.453 30.3253 107.808 32.0546C106.175 33.7809 103.895 34.8725 101.36 34.8725C98.8444 34.8725 96.5605 33.7809 94.9219 32.0546C93.2808 30.3253 92.2651 27.9555 92.2651 25.384C92.2651 22.8125 93.2808 20.4402 94.9219 18.7113C96.5605 16.9864 98.8444 15.8952 101.36 15.8952C103.895 15.8952 106.175 16.9864 107.808 18.7113ZM81.9099 15.9288C79.8707 15.9288 78.009 16.7165 76.619 17.9733V17.2221C76.6168 16.8764 76.4875 16.5544 76.2601 16.3176C76.0396 16.0848 75.7125 15.9288 75.3544 15.9288C74.9836 15.9288 74.6493 16.0766 74.4165 16.3155C74.1874 16.5504 74.0501 16.8764 74.0501 17.2221V33.9709L74.1038 34.0237L74.1059 34.0319C74.12 34.0873 74.1553 34.1483 74.1931 34.2073C74.3704 34.5172 74.6612 34.7521 75.0215 34.8564L75.0733 34.8725H75.3544C75.5417 34.8725 75.7305 34.8332 75.9099 34.75C76.0595 34.6789 76.1985 34.5647 76.3102 34.4186L76.3142 34.4204C76.3279 34.4068 76.3322 34.389 76.3481 34.3754C76.3542 34.3733 76.3599 34.3672 76.3639 34.3611C76.4334 34.2726 76.4915 34.1819 76.5275 34.0969C76.5653 33.9962 76.5891 33.9013 76.6071 33.8284L76.619 33.7809V23.7241C76.6568 22.2855 77.2542 20.9851 78.2122 20.0396C79.1638 19.0948 80.468 18.5103 81.9099 18.5103C83.3759 18.5103 84.6838 19.0948 85.6317 20.0396C86.5836 20.9815 87.1612 22.2798 87.1612 23.7105V33.586C87.1612 33.9466 87.3165 34.2804 87.5518 34.5093C87.7924 34.7378 88.121 34.8725 88.4637 34.8725C88.8121 34.8725 89.1388 34.7378 89.3777 34.5093C89.6206 34.2804 89.7679 33.9466 89.7679 33.586V23.7105C89.7679 19.4479 86.2551 15.9349 81.9099 15.9288ZM210.28 23.5523C209.54 20.5745 206.901 18.4528 203.89 18.4589C200.803 18.4589 198.201 20.5352 197.394 23.5523H210.28ZM213.134 24.7724V24.9002C213.134 25.2576 212.972 25.5793 212.728 25.7907C212.485 26.0035 212.168 26.1142 211.827 26.1181H197.213C197.585 29.6523 200.432 32.262 203.832 32.2891H204.694C205.819 32.2931 206.915 31.9082 207.879 31.2708C208.844 30.6395 209.679 29.7573 210.266 28.7861C210.387 28.579 210.561 28.4211 210.75 28.3244C210.943 28.2198 211.15 28.1723 211.359 28.1723C211.59 28.1723 211.82 28.2315 212.021 28.3519L212.035 28.3579L212.05 28.3697C212.417 28.6361 212.646 29.0428 212.646 29.4891C212.646 29.7158 212.587 29.9468 212.461 30.1557L212.457 30.1639L212.453 30.1675C211.636 31.4547 210.523 32.6287 209.201 33.4796C207.876 34.3319 206.341 34.8725 204.694 34.8725H203.818C201.254 34.8546 198.935 33.7809 197.264 32.0642C195.597 30.3532 194.57 28.0027 194.57 25.4197C194.57 22.7929 195.606 20.4088 197.287 18.6838C198.968 16.961 201.303 15.8952 203.89 15.8952C206.359 15.8952 208.578 16.8682 210.221 18.461C211.863 20.0535 212.937 22.2655 213.128 24.7542L213.134 24.7724ZM153.187 8.09996C152.831 8.09996 152.504 8.24814 152.27 8.48094C152.034 8.71196 151.885 9.03759 151.885 9.39072V33.586C151.885 33.9391 152.034 34.2626 152.27 34.4918C152.504 34.7203 152.831 34.8725 153.187 34.8725C153.926 34.8725 154.523 34.2962 154.528 33.586V9.39072C154.523 8.67839 153.926 8.09996 153.187 8.09996ZM68.0242 24.922C66.9725 24.4307 65.7796 24.0676 64.5892 23.6769C63.4939 23.3099 62.3824 22.9978 61.5897 22.5876C61.1916 22.3762 60.881 22.1534 60.68 21.9027C60.4746 21.6524 60.3752 21.3975 60.369 21.0501C60.3712 20.5745 60.5106 20.1917 60.7455 19.8521C61.1019 19.3451 61.6992 18.9502 62.3525 18.6953C62.9977 18.4396 63.6967 18.3189 64.1964 18.3189C65.674 18.3211 66.6082 18.8085 67.3252 19.3133C67.6794 19.5683 67.9784 19.8264 68.2613 20.0396C68.4065 20.1503 68.5419 20.251 68.6994 20.3256C68.8482 20.3988 69.0237 20.4581 69.215 20.4581C69.3364 20.4581 69.4582 20.4363 69.5691 20.3892C69.6866 20.342 69.7886 20.2745 69.8862 20.1917C69.9817 20.1031 70.0635 19.9964 70.1211 19.8778C70.173 19.7554 70.1968 19.6293 70.1968 19.5051C70.1968 19.2758 70.1229 19.0609 70.0173 18.8592C69.8203 18.5042 69.5173 18.165 69.1314 17.8255C68.5578 17.3202 67.8012 16.8386 66.9866 16.4758C66.1698 16.1127 65.2939 15.8656 64.4595 15.8656C62.5258 15.8656 60.9109 16.2998 59.7378 17.0996C59.1264 17.5177 58.5888 17.9754 58.2087 18.6071C57.8221 19.2405 57.607 20.0221 57.5793 21.0383C57.5775 21.0836 57.5775 21.129 57.5775 21.1743C57.5735 22.1612 57.8938 22.9746 58.3975 23.6116C59.1624 24.571 60.2977 25.1452 61.411 25.5518C62.5222 25.9582 63.6329 26.201 64.3341 26.4338C65.3216 26.7594 66.3712 27.1125 67.1357 27.5803C67.5165 27.8192 67.825 28.0759 68.0343 28.358C68.2375 28.6482 68.3524 28.9478 68.3568 29.327V29.3549C68.3546 29.9033 68.1917 30.3335 67.9226 30.7024C67.5165 31.2512 66.8414 31.6536 66.124 31.9082C65.4095 32.157 64.6666 32.262 64.1885 32.262C62.502 32.262 61.3732 31.8589 60.5546 31.4547C60.1442 31.2512 59.8117 31.0498 59.5108 30.8798C59.3617 30.7992 59.2222 30.7242 59.0749 30.6649C58.9315 30.606 58.7783 30.5678 58.605 30.5678C58.4995 30.5678 58.3842 30.586 58.2783 30.627C58.1709 30.6728 58.0732 30.736 57.9915 30.8127C57.878 30.922 57.7785 31.0437 57.709 31.1841C57.6413 31.3244 57.607 31.4722 57.607 31.6261C57.607 31.8789 57.7025 32.1099 57.8383 32.3188C58.0513 32.6205 58.364 32.8911 58.7542 33.1614C59.1563 33.4278 59.6366 33.6906 60.19 33.9491C61.4168 34.5233 62.9898 34.8232 64.1849 34.8428H64.1885C66.0469 34.8428 67.6517 34.4186 69.0038 33.4321V33.4296H69.0056C70.3279 32.443 71.1505 30.9766 71.1505 29.3209C71.1505 28.4112 70.9354 27.6396 70.5592 27.0083C69.9918 26.051 69.0694 25.4197 68.0242 24.922ZM172.826 25.384C172.826 23.4438 172.087 21.7053 170.907 20.4506C169.728 19.1991 168.109 18.4396 166.338 18.4353C164.582 18.4353 162.969 19.1991 161.778 20.4506C160.596 21.7053 159.847 23.4438 159.847 25.384C159.847 27.3221 160.596 29.0492 161.778 30.2939C162.963 31.5393 164.582 32.2891 166.338 32.2891C168.113 32.2891 169.732 31.5393 170.911 30.2982C172.087 29.0492 172.826 27.3239 172.826 25.384ZM175.041 16.2548C175.282 16.4854 175.431 16.8193 175.431 17.1799V33.586C175.431 33.9391 175.278 34.2626 175.049 34.4918C174.813 34.7203 174.489 34.8725 174.131 34.8725C173.773 34.8725 173.444 34.7203 173.213 34.4918C172.978 34.2626 172.826 33.9391 172.826 33.586V31.9853C171.187 33.7399 168.886 34.8725 166.338 34.8725C163.803 34.8725 161.521 33.7931 159.886 32.0642C158.246 30.3435 157.242 27.973 157.242 25.384C157.242 22.795 158.246 20.4224 159.886 18.6999C161.521 16.9728 163.803 15.8952 166.338 15.8952C168.884 15.8952 171.187 16.995 172.826 18.741V17.1799C172.826 16.8193 172.976 16.4854 173.217 16.2548C173.458 16.0277 173.782 15.8952 174.131 15.8952C174.475 15.8952 174.804 16.0277 175.041 16.2548ZM193.427 17.9183C193.686 17.6637 193.827 17.326 193.827 16.9907C193.827 16.6611 193.686 16.3312 193.425 16.0923H193.427C193.425 16.0848 193.419 16.0848 193.419 16.0848C193.418 16.0788 193.413 16.0766 193.413 16.0766H193.409C193.159 15.832 192.836 15.6978 192.503 15.6978C192.167 15.6978 191.838 15.8367 191.587 16.0848L181.405 25.9189V9.39072C181.405 8.67839 180.804 8.09996 180.065 8.09996C179.709 8.09996 179.382 8.24814 179.149 8.48094C178.918 8.71196 178.763 9.03759 178.763 9.39072V33.586C178.763 33.9391 178.918 34.2626 179.149 34.4918C179.382 34.7203 179.709 34.8725 180.065 34.8725C180.804 34.8725 181.405 34.2962 181.405 33.586V29.5934L184.721 26.3117L191.48 34.3929C191.607 34.5786 191.781 34.7064 191.952 34.7739C192.147 34.8471 192.336 34.8725 192.505 34.8725C192.738 34.8725 193.067 34.8232 193.356 34.5982L193.372 34.5886L193.389 34.5704C193.66 34.3062 193.813 33.9548 193.813 33.5956C193.813 33.2935 193.7 32.9858 193.491 32.7394V32.7355L186.611 24.4464L193.421 17.9183H193.427ZM147.815 8.15745H147.524C147.486 8.15745 147.448 8.16137 147.408 8.1628C147.373 8.16137 147.335 8.15745 147.297 8.15745C146.546 8.15745 145.817 8.24207 145.136 8.46701C144.465 8.68803 143.846 9.0533 143.366 9.60781L143.364 9.60567L143.362 9.60781V9.6096C142.866 10.1563 142.539 10.8097 142.341 11.552C142.141 12.2979 142.059 13.1384 142.052 14.0935V15.9431H139.994C139.28 15.947 138.712 16.5133 138.712 17.1981C138.708 17.567 138.853 17.9065 139.089 18.1515C139.326 18.3921 139.65 18.5499 140.01 18.5696H142.052V33.6174L142.049 33.6527C142.049 34.0059 142.199 34.3315 142.44 34.5647C142.678 34.7935 143.014 34.9296 143.378 34.9296C144.071 34.926 144.64 34.3654 144.642 33.6527V18.5696H146.855C147.211 18.5499 147.54 18.4018 147.775 18.1629C148.016 17.9244 148.163 17.5891 148.163 17.2256V17.1767C148.155 16.4994 147.584 15.9431 146.869 15.9431H144.642V14.1014C144.656 13.2866 144.742 12.6767 144.865 12.2329C144.985 11.7866 145.148 11.5063 145.295 11.3328C145.439 11.1789 145.626 11.0503 145.931 10.9475C146.237 10.8493 146.662 10.7861 147.235 10.7861H147.303C147.337 10.7861 147.373 10.78 147.404 10.78C147.444 10.78 147.482 10.7861 147.524 10.7861H147.691H147.815C148.549 10.7861 149.141 10.198 149.141 9.47142C149.141 8.74552 148.549 8.15745 147.815 8.15745ZM16.6564 26.2381C16.762 25.9085 16.8059 25.569 16.798 25.2337C16.7858 24.9909 16.7541 24.7485 16.6845 24.5057C16.4752 23.7519 15.9794 23.0785 15.2365 22.654L4.67017 16.6076C3.17855 15.7567 1.27692 16.2626 0.420863 17.7387C-0.443481 19.2126 0.0663342 21.0951 1.55795 21.9481L7.46244 25.3322L1.55795 28.7071C0.0663342 29.5616 -0.44168 31.4443 0.420863 32.9244C1.27692 34.3965 3.17855 34.8999 4.67017 34.0491L15.2365 27.9987C15.9495 27.5921 16.4334 26.9544 16.6564 26.2381ZM19.524 31.9042C18.9169 31.8528 18.2857 31.9792 17.7178 32.307L7.14358 38.3495C5.65593 39.2021 5.14792 41.0945 6.0065 42.571C6.86904 44.0435 8.76887 44.5505 10.2544 43.6939L16.1787 40.3072V47.0745C16.1787 48.7795 17.5705 50.1609 19.293 50.1609C21.0073 50.1609 22.4035 48.7795 22.4035 47.0745V34.9767C22.4035 33.3525 21.1331 32.0185 19.524 31.9042ZM30.353 18.7563C30.9583 18.806 31.5877 18.6778 32.1555 18.3539L42.7276 12.3057C44.2174 11.4527 44.7229 9.56818 43.8665 8.08782C43.0083 6.61425 41.1067 6.10865 39.619 6.96095L33.6987 10.3516V3.58212C33.6987 1.88181 32.3068 0.5 30.5843 0.5C28.8617 0.5 27.4735 1.88181 27.4735 3.58212V15.6799C27.4735 17.3024 28.7403 18.6385 30.353 18.7563ZM7.14358 12.3057L17.7178 18.3539C18.2857 18.6778 18.9169 18.806 19.524 18.7563C21.1331 18.6385 22.4035 17.3024 22.4035 15.6799V3.58212C22.4035 1.88181 21.0073 0.5 19.293 0.5C17.5705 0.5 16.1787 1.88181 16.1787 3.58212V10.3516L10.2544 6.96095C8.76887 6.10865 6.86904 6.61425 6.0065 8.08782C5.14792 9.56818 5.65593 11.4527 7.14358 12.3057ZM27.0156 25.3069C27.0156 25.1312 26.9082 24.8863 26.7828 24.7563L25.5103 23.5009C25.3849 23.377 25.1377 23.2742 24.9601 23.2742H24.9107C24.7335 23.2742 24.4867 23.377 24.3631 23.5009L23.0905 24.7563C22.963 24.8863 22.8654 25.1312 22.8654 25.3069V25.3562C22.8654 25.5297 22.963 25.7725 23.0905 25.8989L24.3631 27.1579C24.4885 27.2821 24.7335 27.3846 24.9107 27.3846H24.9601C25.1377 27.3846 25.3849 27.2821 25.5103 27.1579L26.7828 25.8989C26.9082 25.7725 27.0156 25.5297 27.0156 25.3562V25.3069ZM30.5284 26.5145L26.1336 30.8645C26.0078 30.9923 25.765 31.0969 25.582 31.0969H25.2631H24.6139H24.2896C24.112 31.0969 23.8652 30.9923 23.7376 30.8645L19.3449 26.5145C19.2192 26.392 19.1176 26.1456 19.1176 25.9717V25.65V25.0066V24.6892C19.1176 24.5114 19.2192 24.2646 19.3449 24.1404L23.7376 19.7907C23.8652 19.6625 24.112 19.5618 24.2896 19.5618H24.6139H25.2631H25.582C25.761 19.5618 26.0078 19.6625 26.1336 19.7907L30.5284 24.1404C30.6538 24.2646 30.7554 24.5114 30.7554 24.6892V25.0066V25.65V25.9717C30.7554 26.1456 30.6538 26.392 30.5284 26.5145ZM42.7276 38.3495L32.1555 32.307C31.5877 31.9792 30.9583 31.8528 30.353 31.9042C28.7403 32.0185 27.4735 33.3525 27.4735 34.9767V47.0745C27.4735 48.7795 28.8617 50.1609 30.5843 50.1609C32.3068 50.1609 33.6987 48.7795 33.6987 47.0745V40.3072L39.619 43.6939C41.1063 44.5505 43.0083 44.0435 43.8665 42.571C44.7229 41.0945 44.2174 39.2021 42.7276 38.3495ZM48.3176 21.9481L42.4127 25.3322L48.3176 28.7071C49.8088 29.5616 50.3186 31.4443 49.4565 32.9244C48.5961 34.3965 46.6926 34.8999 45.2068 34.0491L34.6325 27.9987C33.9274 27.5921 33.4378 26.9544 33.2206 26.2381C33.1171 25.9085 33.0692 25.569 33.0811 25.2337C33.0872 24.9909 33.1229 24.7485 33.1906 24.5057C33.4021 23.7519 33.8979 23.0789 34.6325 22.654L45.2068 16.6076C46.6926 15.7567 48.5961 16.2626 49.4565 17.7387C50.3186 19.2126 49.8088 21.0951 48.3176 21.9481ZM219.792 15.9124C219.792 17.6087 218.647 19.0245 216.733 19.0245C214.832 19.0245 213.7 17.5952 213.7 15.9124C213.7 14.216 214.832 12.7999 216.733 12.7999C218.647 12.7999 219.792 14.216 219.792 15.9124ZM219.186 15.9124C219.186 14.4699 218.215 13.374 216.733 13.374C215.277 13.374 214.306 14.4159 214.306 15.9124C214.306 17.3413 215.277 18.45 216.733 18.45C218.215 18.45 219.186 17.3549 219.186 15.9124ZM215.533 14.5095H216.84C217.555 14.5095 218.026 14.8969 218.026 15.4978C218.026 15.872 217.838 16.1523 217.555 16.3262L218.067 17.0607V17.2078H217.326L216.827 16.4997H216.248V17.2078H215.533V14.5095ZM216.827 15.1643H216.248V15.872H216.827C217.096 15.872 217.272 15.7517 217.272 15.525C217.272 15.2843 217.11 15.1643 216.827 15.1643Z" fill="black"/>
</g>
</svg>