<?xml version="1.0" encoding="UTF-8" standalone="no"?>
<svg
   width="311"
   height="120"
   viewBox="0 0 311 120"
   version="1.1"
   id="svg32"
   sodipodi:docname="sonicwall.svg"
   inkscape:version="1.2.1 (9c6d41e410, 2022-07-14)"
   xmlns:inkscape="http://www.inkscape.org/namespaces/inkscape"
   xmlns:sodipodi="http://sodipodi.sourceforge.net/DTD/sodipodi-0.dtd"
   xmlns="http://www.w3.org/2000/svg"
   xmlns:svg="http://www.w3.org/2000/svg"
   xmlns:rdf="http://www.w3.org/1999/02/22-rdf-syntax-ns#"
   xmlns:cc="http://creativecommons.org/ns#"
   xmlns:dc="http://purl.org/dc/elements/1.1/">
  <sodipodi:namedview
     id="namedview34"
     pagecolor="#ffffff"
     bordercolor="#666666"
     borderopacity="1.0"
     inkscape:showpageshadow="2"
     inkscape:pageopacity="0.0"
     inkscape:pagecheckerboard="0"
     inkscape:deskcolor="#d1d1d1"
     showgrid="false"
     inkscape:zoom="4.1672026"
     inkscape:cx="145.54128"
     inkscape:cy="26.156636"
     inkscape:window-width="1916"
     inkscape:window-height="2121"
     inkscape:window-x="1920"
     inkscape:window-y="18"
     inkscape:window-maximized="1"
     inkscape:current-layer="svg32" />
  <!-- Generator: Sketch 50.2 (55047) - http://www.bohemiancoding.com/sketch -->
  <title
     id="title2">Logo</title>
  <desc
     id="desc4">Created with Sketch.</desc>
  <defs
     id="defs6" />
  <g
     id="Page-1"
     stroke="none"
     stroke-width="1"
     fill="none"
     fill-rule="evenodd"
     transform="translate(0.47952817,43.159381)">
    <g
       id="Booth"
       transform="translate(-64,-115)"
       fill-rule="nonzero">
      <g
         id="Logo"
         transform="translate(64,115)">
        <path
           d="m 48.388783,1.2114424 c 5.04439,0 9.341463,1.6773818 12.70439,5.0321455 3.456342,3.3547636 5.137806,7.5482181 5.137806,12.4871761 0,4.845769 -1.681464,9.039224 -5.137806,12.487175 -3.362927,3.447952 -7.566585,5.125334 -12.424146,5.125334 -4.950976,0 -9.154635,-1.677382 -12.610977,-5.125334 -3.456341,-3.354763 -5.137805,-7.45503 -5.137805,-12.3008 0,-3.168388 0.747317,-6.1504 2.335366,-8.946036 1.588049,-2.7024485 3.643171,-4.8457697 6.352196,-6.4299636 2.709024,-1.584194 5.604878,-2.329697 8.780976,-2.329697 z m 0.09341,3.1683879 c -2.522195,0 -4.857561,0.6523151 -7.006098,1.9569455 -2.241951,1.3046303 -3.923414,2.9820121 -5.231219,5.2185212 -1.214391,2.143321 -1.868293,4.566206 -1.868293,7.268654 0,4.007079 1.401219,7.361843 4.110244,10.064291 2.802439,2.702449 6.071951,4.100267 9.995366,4.100267 2.61561,0 5.044391,-0.652315 7.192928,-1.863758 2.241951,-1.211442 3.923414,-2.982012 5.137805,-5.125333 1.21439,-2.143321 1.868292,-4.566206 1.868292,-7.268654 0,-2.609261 -0.653902,-5.032146 -1.868292,-7.175467 C 59.598539,9.4119758 57.823661,7.7345939 55.58171,6.4299636 53.433173,5.0321454 51.004393,4.3798303 48.482197,4.3798303 Z"
           id="Shape"
           fill="#646569" />
        <polygon
           id="polygon9"
           fill="#646569"
           points="99.673419,1.0250667 103.22317,1.0250667 103.22317,36.529649 102.38244,36.529649 78.935369,9.6915394 78.935369,36.529649 75.292198,36.529649 75.292198,1.0250667 76.039516,1.0250667 99.673419,28.235927 " />
        <polygon
           id="polygon11"
           fill="#646569"
           points="112.84488,1.0250667 116.20781,1.0250667 116.20781,36.436461 112.84488,36.436461 " />
        <path
           d="m 233.16294,1.0250667 h -6.81927 l -9.62171,25.6266663 19.33683,0.09319 3.73659,9.598352 h 7.00609 z m -8.03366,21.4332123 4.76414,-12.114424 4.67074,12.114424 z"
           id="path13"
           fill="#646569" />
        <polygon
           id="polygon15"
           fill="#646569"
           points="274.07855,36.250085 253.9944,36.250085 253.9944,1.0250667 260.72026,1.0250667 260.72026,29.820121 274.07855,29.820121 " />
        <polygon
           id="polygon17"
           fill="#646569"
           points="301.35562,36.250085 281.27148,36.250085 281.27148,1.0250667 287.99733,1.0250667 287.99733,29.820121 301.35562,29.820121 " />
        <path
           d="m 227.1844,51.160145 c 0,0 -16.44098,-5.870836 -20.08415,-15.748751 -4.01683,-10.99617 11.02293,-13.512243 26.34293,-13.046303 8.3139,0.279564 18.40268,1.491006 18.40268,1.491006 0,0 -23.91414,3.0752 -32.6017,9.971103 -8.31391,6.802715 7.94024,17.332945 7.94024,17.332945 z"
           id="path19"
           fill="#f36e21" />
        <path
           d="m 155.81562,27.956364 c -3.1761,3.541139 -7.0061,5.311709 -11.67683,5.311709 -4.29708,0 -7.84683,-1.397818 -10.64927,-4.100267 -2.80244,-2.702448 -4.20366,-6.1504 -4.20366,-10.250667 0,-2.702448 0.6539,-5.125333 1.86829,-7.268654 1.21439,-2.1433214 2.98927,-3.9138911 5.32464,-5.2185214 2.24195,-1.3046303 4.76414,-1.9569454 7.47317,-1.9569454 2.42878,0 4.67073,0.4659394 6.72585,1.491006 1.96171,0.9318788 3.64317,2.329697 5.04439,4.1002668 V 5.4980848 C 154.69464,4.6593939 153.57366,3.6343273 152.35927,3.0752 c -2.52219,-1.2114424 -5.32463,-1.8637576 -8.50073,-1.8637576 -5.23122,0 -9.52829,1.6773818 -12.98463,5.0321455 -3.45634,3.3547636 -5.13781,7.4550301 -5.13781,12.3939881 0,4.659394 1.40122,8.666472 4.29708,11.928048 3.36292,3.913891 8.03365,5.870837 13.91878,5.870837 3.08268,0 5.88512,-0.559128 8.40731,-1.77057 1.21439,-0.559127 2.42879,-1.584194 3.45635,-2.422885 z"
           id="path21"
           fill="#646569" />
        <path
           d="M 12.797806,17.053382 C 4.7641466,15.376 3.2695123,13.325867 3.2695123,10.064291 V 9.971103 c 0,-3.4479515 3.2695124,-5.9640242 7.8468297,-5.9640242 3.83,0 6.819269,1.1182545 9.808537,3.7275151 l 0.280244,0.2795637 0.09341,-0.093188 V 4.0070788 C 18.215854,1.9569454 15.133171,1.1182545 11.209757,1.1182545 4.8575612,1.1182545 0,5.0321454 0,10.343855 v 0.09319 c 0,5.311709 3.362927,8.107346 11.67683,9.784728 7.753415,1.584194 9.248049,3.634327 9.248049,6.802715 v 0.09319 c 0,3.727515 -3.362927,6.336775 -8.127073,6.336775 -4.6707325,0 -8.0336594,-1.397818 -11.86365962,-4.938957 l -0.28024391,-0.279564 -0.0934146,0.09319 v 4.007079 C 4.2036587,35.131837 8.0336589,36.34328 12.610976,36.34328 c 6.819269,0 11.490001,-3.913891 11.490001,-9.505164 v -0.09319 c 0.09341,-5.125333 -3.362927,-8.014157 -11.303171,-9.691539 z"
           id="path23"
           fill="#646569" />
        <polygon
           id="polygon25"
           fill="#646569"
           points="190.28562,0.93187879 183.84001,0.93187879 175.89976,24.974352 175.71293,25.533479 175.52611,24.974352 167.49245,1.0250667 159.45879,1.0250667 172.16318,36.436461 178.79562,36.436461 186.73586,13.325867 186.92269,12.859927 187.10952,13.325867 195.14318,36.436461 201.6822,36.436461 214.48001,1.0250667 206.63318,1.0250667 198.59952,24.974352 198.41269,25.533479 198.22586,24.974352 " />
        <path
           d="m 309.20245,6.2435879 c -0.6539,0.6523151 -1.40122,0.9318788 -2.33536,0.9318788 -0.93415,0 -1.77488,-0.2795637 -2.33537,-0.9318788 -0.56049,-0.6523152 -0.93415,-1.3978182 -0.93415,-2.329697 0,-0.9318788 0.37366,-1.7705697 1.02757,-2.4228848 0.6539,-0.55912731 1.40122,-0.93187883 2.33536,-0.93187883 0.93415,0 1.68147,0.27956364 2.33537,0.93187883 0.6539,0.6523151 0.93414,1.3978181 0.93414,2.3296969 0,1.0250667 -0.37366,1.7705697 -1.02756,2.4228849 z m -4.29707,-4.2866425 c -0.56049,0.5591273 -0.84073,1.2114425 -0.84073,1.9569455 0,0.745503 0.28024,1.3978182 0.84073,1.9569455 0.56049,0.5591272 1.21439,0.8386909 1.96171,0.8386909 0.74731,0 1.40122,-0.2795637 1.9617,-0.8386909 0.56049,-0.5591273 0.84074,-1.2114425 0.84074,-1.9569455 0,-0.745503 -0.28025,-1.3978182 -0.84074,-1.9569455 -0.56048,-0.5591272 -1.21439,-0.8386909 -1.9617,-0.8386909 -0.74732,0 -1.40122,0.2795637 -1.96171,0.8386909 z m 0.46707,3.7275152 V 1.9569454 c 0.18683,0 0.56049,0 1.02756,0 0.46708,0 0.74732,0 0.74732,0 0.28024,0 0.56049,0.093188 0.74732,0.1863758 0.37366,0.1863758 0.46707,0.4659394 0.46707,0.8386909 0,0.2795637 -0.0934,0.5591273 -0.28024,0.6523152 -0.18683,0.093188 -0.37366,0.1863757 -0.65391,0.2795636 0.18683,0.093188 0.37366,0.093188 0.56049,0.1863758 0.18683,0.1863757 0.28025,0.4659394 0.28025,0.8386909 v 0.3727515 c 0,0 0,0.093188 0,0.093188 0,0 0,0.093188 0,0.093188 v 0.093188 h -0.93415 c 0,-0.093188 -0.0934,-0.2795636 -0.0934,-0.4659394 0,-0.1863757 0,-0.3727515 -0.0934,-0.4659394 -0.0934,-0.093188 -0.0934,-0.1863757 -0.28024,-0.2795636 -0.0934,0 -0.18683,-0.093188 -0.37366,-0.093188 h -0.18683 -0.18683 V 5.591273 h -0.74732 z m 1.77488,-2.9820121 c -0.0934,-0.093188 -0.28024,-0.093188 -0.56049,-0.093188 h -0.28024 v 1.1182546 h 0.37366 c 0.18683,0 0.37366,0 0.56049,-0.093188 0.0934,-0.093188 0.18682,-0.2795637 0.18682,-0.4659394 0,-0.1863758 -0.0934,-0.3727515 -0.28024,-0.4659392 z"
           id="path27"
           fill="#646569" />
      </g>
    </g>
  </g>
  <metadata
     id="metadata817">
    <rdf:RDF>
      <cc:Work
         rdf:about="">
        <dc:title>Logo</dc:title>
      </cc:Work>
    </rdf:RDF>
  </metadata>
</svg>
