<svg xmlns="http://www.w3.org/2000/svg" viewBox="0 0 252 54"><defs><style>.cls-1{fill:#236BF5;}</style></defs><g id="nav"><path class="cls-1" d="M84.53,27.46c1.34,8.25-5.82,12.89-13.08,13.43-4.62,9.5-20.91,15.91-35,9-6,.91-9.35-.6-11.9-3.48C29.69,39.77,45.32,27.82,64.41,34c10.2,3.29,12.85-4.45,10.28-7.35-9.62-10.92-31.34-1.09-32.11-.27C51.11,13.32,81.62,9.66,84.53,27.46Zm-29.24-15c.05,0-6.94-2.49-16.7,1.73a10.37,10.37,0,0,1-1.16-.5c9.4-6.24,17.63-8.89,24.68-7.86C57.84.93,37.35-2.68,25.61,9.09,11.1,6.23.94,18.53,1.52,29.76S14.36,48,21.34,46.09a2.09,2.09,0,0,1,.5,0C23.4,38.67,29.7,21.4,55.29,12.47Zm58.45,10.26L115,17H93.18l-.49,2.22a2.55,2.55,0,0,0,2.64,3.3h10.13L87.51,38.37,86.3,43.69h23.15l1.33-5.82H96.14Zm14.58,4.61c-1-.26-6.77-1.12-6.41-3.11.4-2.22,3.12-2.44,4.45-2.4,2.73.08,3.59,1.28,3.73,1.71a2.42,2.42,0,0,0,2.52,1.7h4.31c.48-2.67.6-8.82-9.41-8.82-3.21,0-7.5.8-10.33,4.07-1.52,1.75-4.13,6.1-1.46,9.36,1.4,1.65,5,2.94,9,3.71,2.53.5,3.87,1.51,3.59,2.71-.17.8-1.18,2.61-4.9,2.61-1.67,0-5.27-.27-4.59-4H112c-.8,3.4-1.1,9.32,9.3,9.32,4,0,12.16-.51,14.29-9C137.09,29,130.18,27.82,128.32,27.34Zm24.09,9.43a6.09,6.09,0,0,1-4.37,1.6c-5.15.05-4.57-5-3.87-8.12s2.36-8,7.25-8c3.47,0,3.87,2.25,4.05,2.91h7c-.24-7.41-5.92-8.82-9.93-8.72-11,.27-14.18,9.46-15.17,13.73-2.87,12.48,5.11,14,8.93,14a15,15,0,0,0,14-8.72h-5A3.71,3.71,0,0,0,152.41,36.77Zm28.65,2.56a13.11,13.11,0,0,1-7.93,4.46c-6.1,1-14.48.75-12.37-8,.68-2.8,1.72-4.64,3.83-6,3.52-2.31,8.19-2.64,9.71-2.81.52-.05,4.35-.34,5-2.61s-2.88-2.39-3.86-2.4c-3,0-4,1.17-4.55,1.9h-6.71c2.71-7.14,10.2-7.41,12.22-7.41,2.26,0,11.35,0,9.61,7.52C183.38,35.42,183.29,36.57,181.06,39.33Zm-3-9.08a26.65,26.65,0,0,1-4.21,1.3c-1.4.42-4,.59-5.32,1.81-1.1,1-3,5.32,1.57,5.41a7.34,7.34,0,0,0,7.43-6.21C177.75,31.51,178.06,30.25,178.06,30.25Zm17.26-21h-3.6l-7.88,34.49h7L198,12.51A2.54,2.54,0,0,0,195.32,9.2Zm18.19,26.27h5a15.23,15.23,0,0,1-14,8.72c-10.67,0-10-9.52-8.92-14,3-12.55,11.42-13.73,15.16-13.73,5,0,12.81,2.06,8.84,15.74H202.24c-.43,1.81-.79,6.26,4,6.21a5.89,5.89,0,0,0,3.69-1C210.57,37,211.17,35.51,213.51,35.47Zm-10.25-7.82h10.23c.87-4.9-2.16-5.42-3.88-5.42C208.14,22.23,204.65,22.76,203.26,27.65Zm25.28-7.72c-4.69,3.2-6.25,8.35-6.79,10.83-.43,1.94-2.95,12.93-2.95,12.93h7S228.48,31.59,229,30c.55-1.93,2.36-7.16,9.36-6.95l1.62-6A18.9,18.9,0,0,0,228.54,19.93Zm12.25-8.12L241,11h3.78l-.18.84h-1.35l-.78,3.69h-1l.77-3.69ZM247,11l.34,3.28h0L249.11,11h1.39l-1,4.53h-.93l.82-3.6h0l-1.91,3.6h-.76l-.44-3.6h0l-.67,3.6h-.94l.95-4.53Z"/></g></svg>